<?xml version="1.0" encoding="UTF-8" standalone="no"?>
<svg
   xmlns:dc="http://purl.org/dc/elements/1.1/"
   xmlns:cc="http://creativecommons.org/ns#"
   xmlns:rdf="http://www.w3.org/1999/02/22-rdf-syntax-ns#"
   xmlns:svg="http://www.w3.org/2000/svg"
   xmlns="http://www.w3.org/2000/svg"
   id="svg869"
   preserveAspectRatio="xMidYMid meet"
   viewBox="0 0 3062.000000 2570.000000"
   height="2570.000000pt"
   width="3062.000000pt"
   version="1.0">
  <metadata
     id="metadata875">
    <rdf:RDF>
      <cc:Work
         rdf:about="">
        <dc:format>image/svg+xml</dc:format>
        <dc:type
           rdf:resource="http://purl.org/dc/dcmitype/StillImage" />
        <dc:title></dc:title>
      </cc:Work>
    </rdf:RDF>
  </metadata>
  <defs
     id="defs873" />
  <g
     style="fill:#f42a2a;stroke:none;fill-opacity:1"
     id="g867"
     transform="matrix(-0.1,0,0,-0.1,3061.9774,2570)">
    <path
       style="fill:#f42a2a;fill-opacity:1"
       id="path865"
       d="m 12660,25659 c -109,-113 -128,-222 -156,-899 -9,-217 -17,-396 -19,-398 -5,-6 -310,210 -348,246 -79,75 -100,133 -147,395 -62,347 -88,427 -141,427 -25,0 -66,-54 -83,-110 -43,-144 -47,-554 -7,-705 28,-106 86,-224 153,-313 30,-40 120,-141 200,-225 l 146,-153 -157,-62 c -86,-35 -214,-81 -286,-103 -136,-43 -281,-111 -425,-199 -225,-139 -328,-198 -363,-209 -71,-24 -212,-146 -293,-255 -49,-65 -53,-85 -24,-111 49,-45 153,-19 485,117 402,166 565,210 853,228 157,10 242,6 242,-11 0,-8 -75,-103 -190,-239 -170,-201 -301,-475 -316,-661 -5,-64 -3,-85 20,-153 47,-138 158,-296 208,-296 25,0 56,69 138,304 109,316 171,417 473,770 l 34,39 76,-114 c 80,-121 123,-175 254,-316 l 82,-89 -130,-170 c -161,-210 -356,-442 -619,-734 -247,-274 -350,-396 -436,-518 -76,-105 -130,-157 -225,-213 -106,-62 -168,-119 -238,-219 -62,-88 -71,-96 -161,-148 -52,-30 -128,-77 -168,-104 -40,-27 -101,-63 -135,-79 -74,-35 -138,-37 -322,-13 -406,53 -757,152 -869,244 -68,57 -78,61 -164,72 -80,10 -116,24 -147,57 -51,58 -232,141 -305,141 -35,0 -43,4 -64,39 -43,67 -232,178 -343,201 -36,8 -83,31 -145,72 -103,68 -158,92 -233,103 -69,10 -121,37 -191,96 -34,29 -114,78 -190,115 -85,43 -154,86 -200,125 -84,71 -137,93 -271,108 -56,7 -141,23 -190,37 -48,15 -126,37 -173,50 -189,55 -371,42 -630,-45 -211,-71 -237,-75 -430,-66 -209,11 -248,11 -283,2 -16,-4 -62,-39 -103,-78 -108,-102 -132,-111 -349,-120 -215,-10 -570,4 -636,24 -26,8 -91,44 -145,80 -55,36 -156,95 -226,132 -253,132 -326,150 -598,149 -442,0 -671,-80 -919,-319 -285,-274 -406,-483 -465,-805 -19,-108 -42,-131 -142,-150 -144,-26 -319,-90 -644,-235 -261,-116 -457,-182 -580,-195 -196,-20 -456,-117 -652,-242 -80,-51 -138,-108 -138,-134 0,-8 -21,-37 -46,-64 -55,-59 -91,-155 -123,-327 -73,-385 -53,-500 137,-784 227,-338 581,-668 1044,-973 473,-311 800,-461 1338,-612 640,-180 1078,-359 1387,-565 39,-27 131,-97 205,-155 254,-204 421,-302 868,-510 l 295,-136 415,-19 c 800,-36 825,-33 1400,136 635,188 927,305 1217,492 341,219 408,255 508,273 39,7 198,43 355,80 563,135 1027,212 1174,195 172,-19 564,-237 916,-509 208,-161 381,-317 670,-605 496,-494 709,-670 1093,-901 75,-46 137,-86 137,-90 0,-12 -321,-321 -429,-414 -143,-122 -202,-165 -351,-251 -266,-155 -266,-155 -650,-255 -69,-18 -171,-50 -228,-71 -136,-51 -186,-57 -244,-31 -58,25 -113,75 -204,185 -148,176 -230,320 -245,426 -12,85 -29,111 -73,111 -42,0 -103,-41 -185,-124 l -65,-65 57,-268 c 94,-442 101,-503 68,-544 -17,-21 -28,-24 -78,-23 -135,3 -229,65 -521,345 -233,223 -288,292 -335,420 -35,95 -74,137 -115,123 -47,-16 -64,-84 -57,-239 6,-159 24,-237 76,-334 108,-201 303,-373 553,-490 303,-142 240,-264 -157,-301 -190,-18 -432,-3 -777,49 -302,46 -404,14 -292,-91 109,-102 280,-156 992,-313 418,-92 504,-117 539,-159 45,-54 -220,-563 -483,-929 -183,-255 -215,-303 -248,-372 -36,-78 -41,-134 -14,-164 27,-29 53,-26 121,14 158,96 395,335 712,721 98,119 265,287 348,349 76,57 151,95 187,95 36,0 46,-23 124,-268 165,-523 197,-596 319,-717 128,-129 345,-260 417,-253 l 33,3 -1,65 c -2,96 -56,203 -188,373 -75,96 -116,278 -116,518 0,144 15,213 75,354 115,269 176,309 950,625 193,78 469,192 615,253 356,148 524,212 601,232 35,9 147,56 249,105 102,49 235,109 297,134 175,69 328,187 524,402 114,126 155,190 169,263 30,158 -7,326 -124,566 -150,306 -423,650 -680,858 -224,180 -748,495 -1043,627 -59,26 -109,52 -111,58 -2,6 11,26 29,46 37,43 69,46 111,11 40,-33 58,-32 114,12 27,20 69,43 94,51 71,23 388,28 1228,19 l 764,-8 176,67 c 256,96 365,132 456,149 108,21 421,34 801,35 479,1 723,18 902,65 244,64 496,87 1336,121 l 398,16 117,-114 c 64,-62 135,-122 156,-132 41,-19 49,-19 281,-1 39,4 76,2 84,-3 9,-7 16,-37 19,-88 2,-44 9,-87 14,-97 12,-23 58,-42 120,-51 69,-10 95,-35 103,-98 8,-66 41,-139 88,-198 22,-26 33,-48 27,-54 -5,-5 -100,0 -232,13 -424,41 -659,54 -973,55 -351,1 -407,-6 -538,-72 -160,-80 -404,-375 -675,-818 -87,-142 -132,-228 -151,-286 -7,-21 -47,-91 -88,-155 -42,-65 -102,-161 -134,-214 -180,-300 -466,-896 -494,-1029 -12,-58 -71,-164 -140,-255 -88,-115 -130,-185 -219,-367 -86,-175 -148,-257 -251,-336 -79,-59 -100,-67 -152,-57 -79,15 -260,245 -385,490 -75,147 -88,194 -99,368 -10,160 -24,220 -52,225 -39,8 -251,-243 -329,-390 -25,-45 -28,-62 -28,-142 0,-186 65,-443 170,-670 55,-121 54,-156 -5,-213 -25,-24 -54,-43 -64,-43 -41,0 -228,171 -473,434 -171,183 -260,289 -365,431 -163,222 -309,327 -412,297 -69,-21 -71,-36 -14,-95 61,-64 96,-114 161,-237 67,-125 135,-294 162,-400 12,-47 34,-107 48,-134 28,-51 155,-175 347,-338 114,-97 178,-170 173,-196 -2,-11 -22,-20 -58,-27 -83,-17 -121,-31 -286,-106 -145,-65 -209,-88 -339,-125 -33,-9 -125,-46 -205,-82 -183,-83 -207,-84 -394,-23 -175,57 -284,74 -421,68 -129,-6 -192,-25 -241,-74 -57,-57 -41,-122 39,-152 16,-6 61,-16 100,-22 92,-14 181,-47 309,-112 156,-80 320,-107 663,-109 158,-1 175,1 248,26 42,14 130,52 195,85 228,114 297,121 502,51 69,-23 127,-44 129,-46 9,-8 -133,-145 -189,-184 -30,-20 -84,-52 -119,-70 -186,-93 -275,-257 -332,-609 -54,-339 -117,-580 -185,-712 -31,-60 -34,-72 -34,-156 0,-117 22,-233 58,-303 22,-45 33,-56 56,-58 58,-7 155,87 245,237 68,112 107,211 126,317 54,295 105,483 186,679 63,153 120,251 231,398 l 90,117 h 472 472 l 28,-66 c 48,-118 164,-265 419,-535 517,-545 573,-620 672,-899 45,-126 59,-149 102,-166 43,-18 174,-18 218,0 39,17 57,47 79,133 21,81 20,158 -3,209 -26,57 -141,228 -236,349 -113,145 -208,248 -293,318 -120,97 -126,121 -161,572 l -19,240 132,135 c 207,212 301,329 405,502 62,103 98,189 116,277 21,97 95,199 418,575 195,228 270,340 405,611 177,353 291,694 311,923 12,133 16,137 138,147 108,9 360,-1 479,-19 49,-8 199,-48 334,-89 633,-194 1507,-427 2204,-587 208,-48 257,-66 386,-144 328,-200 798,-594 908,-761 53,-81 57,-105 42,-283 -18,-231 0,-455 115,-1407 84,-696 101,-938 74,-1055 -23,-98 -30,-164 -39,-375 -16,-367 -80,-1059 -115,-1252 -21,-111 -55,-213 -126,-371 -70,-156 -105,-278 -119,-416 -18,-170 -41,-229 -139,-341 -94,-108 -106,-139 -101,-265 7,-222 4,-242 -50,-305 -23,-27 -42,-60 -46,-83 -12,-66 -62,-150 -194,-324 -86,-114 -128,-185 -156,-264 -28,-80 -95,-171 -242,-327 -200,-213 -274,-316 -312,-439 -22,-72 -74,-158 -142,-233 -85,-95 -142,-195 -205,-360 -48,-125 -91,-203 -128,-230 -17,-13 -74,-41 -127,-63 -130,-52 -196,-93 -288,-179 -85,-80 -149,-168 -231,-318 -43,-81 -72,-119 -149,-195 -88,-89 -165,-143 -1110,-782 -1227,-829 -1343,-904 -1569,-1017 -271,-135 -1122,-443 -1466,-529 -504,-128 -1693,-305 -2495,-372 -353,-30 -834,-75 -1220,-115 -771,-79 -1007,-92 -1360,-75 -331,16 -483,1 -546,-54 -42,-35 -28,-62 89,-170 161,-150 283,-243 382,-292 158,-77 498,-151 798,-174 523,-40 3049,-40 3767,0 640,36 1154,112 1990,296 618,136 1059,263 1419,410 75,31 278,125 451,209 173,84 367,176 430,205 132,59 270,135 355,195 96,68 118,73 484,115 194,22 377,81 502,161 34,22 97,74 140,115 85,81 174,130 284,159 76,19 191,20 229,0 41,-22 63,-19 143,19 119,57 222,133 328,242 118,121 126,124 305,124 181,1 349,42 513,127 95,50 155,125 117,148 -21,13 -9,53 25,84 50,44 205,133 352,202 71,33 148,70 173,82 92,45 261,237 276,315 5,23 19,41 48,61 56,39 163,91 276,136 202,80 304,145 342,218 28,56 67,105 168,212 107,113 168,192 216,281 49,91 143,182 274,268 105,68 173,125 192,160 5,10 14,61 18,112 11,122 28,150 134,219 45,28 87,60 95,69 24,28 24,103 1,294 -12,101 -20,185 -18,187 2,1 62,19 133,39 162,46 260,91 324,151 51,48 65,75 76,155 12,78 35,161 86,298 60,161 77,233 89,362 4,55 16,114 25,135 10,20 51,69 92,108 49,47 77,83 83,107 13,46 13,292 -1,421 -12,125 -29,169 -61,169 -34,0 -48,18 -48,61 0,57 25,115 101,231 129,198 194,364 193,493 0,71 -5,91 -41,175 -66,153 -68,164 -68,390 0,205 7,262 39,305 13,17 17,18 55,5 37,-12 44,-12 57,2 23,23 11,80 -37,163 -139,246 -178,371 -186,600 -4,119 -1,187 17,333 12,100 20,216 18,256 -3,65 -7,80 -36,120 -84,116 -141,364 -151,656 -8,222 -9,225 -106,365 -31,44 -92,153 -137,242 -108,214 -110,228 -39,411 29,74 49,142 46,152 -3,10 -37,31 -82,51 -199,87 -306,295 -328,638 -8,120 -26,210 -70,338 -19,56 -35,109 -35,118 0,9 13,47 30,85 54,122 37,183 -87,306 -62,62 -84,92 -101,139 -48,125 -112,619 -112,861 0,84 3,97 31,150 18,33 78,147 134,254 56,107 123,231 150,275 50,83 142,205 154,205 6,0 62,-57 169,-171 l 44,-46 -81,-230 c -129,-371 -154,-493 -154,-758 0,-197 11,-249 72,-341 67,-100 267,-332 410,-475 166,-165 220,-196 401,-229 151,-27 293,-72 355,-111 65,-41 198,-176 308,-314 167,-209 290,-397 498,-759 49,-87 96,-152 140,-198 65,-69 66,-69 114,-66 38,2 52,8 66,28 59,80 50,400 -16,575 -33,89 -90,183 -176,290 -86,107 -137,185 -212,320 -82,149 -315,654 -328,712 -14,59 -10,83 45,278 66,232 78,264 128,353 46,79 220,329 240,343 5,3 133,11 286,18 618,27 745,45 946,137 105,49 226,84 286,84 113,0 228,77 237,160 7,63 -24,106 -102,145 -55,27 -69,30 -190,33 -160,5 -267,-15 -470,-87 -77,-27 -175,-54 -218,-61 -135,-22 -507,-3 -799,41 -68,10 -348,76 -356,84 -2,2 26,54 62,117 105,180 190,420 261,738 91,408 85,635 -24,876 -56,125 -72,191 -78,325 -6,128 12,274 48,377 38,110 61,218 63,292 1,70 -2,80 -34,134 -100,166 -412,502 -510,549 -137,66 -344,38 -597,-83 -268,-127 -570,-335 -998,-686 -177,-145 -343,-273 -479,-369 -123,-86 -243,-193 -326,-290 -44,-52 -85,-95 -89,-95 -5,0 -12,26 -16,57 -9,72 -27,108 -65,128 -74,38 -78,106 -20,290 22,69 40,137 40,151 0,17 -22,46 -73,97 -83,82 -107,125 -107,191 0,38 6,52 34,83 44,50 56,75 56,114 0,51 -36,112 -101,172 -78,73 -92,107 -83,207 10,120 3,142 -64,192 -82,63 -90,84 -101,279 -9,184 -17,210 -78,256 -108,83 -119,97 -157,215 -46,142 -202,463 -252,518 -43,47 -103,85 -154,95 -88,19 -121,52 -141,143 -22,104 -140,241 -278,321 -98,58 -106,73 -106,203 0,86 -4,111 -17,124 -10,11 -53,21 -124,30 -183,23 -209,41 -332,220 -71,104 -176,210 -218,220 -53,13 -88,36 -184,125 -134,124 -225,195 -298,231 -60,30 -66,31 -152,25 -49,-3 -105,-1 -123,4 -19,5 -66,38 -105,72 -80,72 -162,115 -277,146 -99,27 -266,108 -405,197 -247,157 -350,197 -611,239 -283,45 -440,75 -559,106 -94,24 -149,32 -300,39 -215,12 -302,22 -405,49 -149,39 -691,81 -1052,81 -209,0 -273,-10 -448,-70 -227,-78 -250,-81 -560,-90 -293,-9 -414,-22 -588,-66 -109,-27 -139,-40 -212,-94 -61,-46 -113,-63 -185,-63 -71,1 -124,23 -176,74 -46,45 -65,44 -97,-5 -24,-37 -141,-110 -289,-180 -238,-114 -455,-181 -655,-204 -72,-8 -121,-22 -215,-60 -68,-27 -170,-62 -227,-77 -132,-34 -248,-75 -376,-132 -151,-68 -269,-111 -386,-143 -134,-37 -197,-65 -305,-135 -116,-75 -207,-120 -329,-161 -113,-37 -201,-45 -211,-19 -14,36 96,135 335,302 402,279 625,523 717,784 22,60 27,98 31,200 6,146 -6,222 -42,259 -17,17 -29,49 -40,105 -19,96 -121,310 -216,455 -86,129 -208,248 -339,330 -145,89 -432,232 -635,314 -254,104 -354,170 -454,303 -136,180 -200,378 -235,723 -18,175 -30,236 -56,278 -26,43 -52,41 -100,-9 z m 14785,-9161 c -35,-116 -186,-480 -229,-552 -49,-81 -44,-77 -74,-62 -31,16 -113,100 -131,135 -17,31 -7,63 46,145 49,76 228,262 308,319 59,43 90,49 80,15 z" />
  </g>
</svg>
