<?xml version="1.0" encoding="UTF-8" standalone="no"?>
<svg
   xmlns:dc="http://purl.org/dc/elements/1.1/"
   xmlns:cc="http://creativecommons.org/ns#"
   xmlns:rdf="http://www.w3.org/1999/02/22-rdf-syntax-ns#"
   xmlns:svg="http://www.w3.org/2000/svg"
   xmlns="http://www.w3.org/2000/svg"
   xmlns:xlink="http://www.w3.org/1999/xlink"
   version="1.1"
   id="Capa_1"
   x="0px"
   y="0px"
   width="1000"
   height="500"
   viewBox="0 0 999.99997 499.99998"
   xml:space="preserve"><metadata
   id="metadata41"><rdf:RDF><cc:Work
       rdf:about=""><dc:format>image/svg+xml</dc:format><dc:type
         rdf:resource="http://purl.org/dc/dcmitype/StillImage" /><dc:title></dc:title></cc:Work></rdf:RDF></metadata><defs
   id="defs39"><linearGradient
     id="linearGradient853"><stop
       id="stop849"
       offset="0"
       style="stop-color:#00f040;stop-opacity:1" /><stop
       id="stop851"
       offset="1"
       style="stop-color:#000000;stop-opacity:0;" /></linearGradient><linearGradient
     id="linearGradient852"><stop
       style="stop-color:#000000;stop-opacity:1;"
       offset="0"
       id="stop848" /><stop
       style="stop-color:#000000;stop-opacity:0;"
       offset="1"
       id="stop850" /></linearGradient><linearGradient
     xlink:href="#linearGradient852"
     id="linearGradient856"
     x1="0"
     y1="247.229"
     x2="494.45901"
     y2="247.229"
     gradientUnits="userSpaceOnUse" /><linearGradient
     xlink:href="#linearGradient853"
     id="linearGradient858"
     gradientUnits="userSpaceOnUse"
     x1="-0.56827682"
     y1="256.76291"
     x2="494.45901"
     y2="247.229" /></defs>
<g
   id="g4"
   style="fill:url(#linearGradient856);fill-opacity:1"
   transform="matrix(1.864095,0,0,1,47.539014,3.8052933)">
	<path
   d="m 0,21.479 v 451.5 h 34 v -82.953 h 11.536 v 82.456 L 186.622,441.628 V 98.84 L 45.536,67.985 v 53.447 H 34 V 55.479 h 426.459 v 65.953 H 447.924 V 67.985 L 306.838,98.84 v 342.788 l 141.086,30.854 v -82.456 h 12.535 v 82.953 h 34 v -451.5 z m 162.971,226.567 c 5.036,0 9.12,4.789 9.12,10.697 0,5.908 -4.084,10.697 -9.12,10.697 -5.036,0 -9.121,-4.789 -9.121,-10.697 0,-5.908 4.085,-10.697 9.121,-10.697 z M 45.536,168.453 v 174.55 H 34 v -174.55 z m 284.95,100.988 c -5.035,0 -9.121,-4.789 -9.121,-10.698 0,-5.908 4.086,-10.695 9.121,-10.695 5.035,0 9.121,4.787 9.121,10.695 0,5.909 -4.086,10.698 -9.121,10.698 z m 129.971,73.562 h -12.535 v -174.55 h 12.535 z"
   id="path2"
   style="fill:url(#linearGradient858);fill-opacity:1" />
</g>
<g
   id="g6"
   transform="translate(0,5.5409851)">
</g>
<g
   id="g8"
   transform="translate(0,5.5409851)">
</g>
<g
   id="g10"
   transform="translate(0,5.5409851)">
</g>
<g
   id="g12"
   transform="translate(0,5.5409851)">
</g>
<g
   id="g14"
   transform="translate(0,5.5409851)">
</g>
<g
   id="g16"
   transform="translate(0,5.5409851)">
</g>
<g
   id="g18"
   transform="translate(0,5.5409851)">
</g>
<g
   id="g20"
   transform="translate(0,5.5409851)">
</g>
<g
   id="g22"
   transform="translate(0,5.5409851)">
</g>
<g
   id="g24"
   transform="translate(0,5.5409851)">
</g>
<g
   id="g26"
   transform="translate(0,5.5409851)">
</g>
<g
   id="g28"
   transform="translate(0,5.5409851)">
</g>
<g
   id="g30"
   transform="translate(0,5.5409851)">
</g>
<g
   id="g32"
   transform="translate(0,5.5409851)">
</g>
<g
   id="g34"
   transform="translate(0,5.5409851)">
</g>
</svg>